Genre:Comedy
Language:English
IMDb:http://www.imdb.com/title/tt0427152/
Source:IFLIX.Thanks
Sample:Yes

General
Complete name :Dinner For Schmucks 2010 PPVRip XviD Feel-Free
Format : AVI
Format/Info : Audio Video Interleave
File size : 753 MiB
Duration : 1h 53mn
Overall bit rate : 928 Kbps
Video #0
Codec ID : XVID
Codec ID/Hint : XviD
Duration : 1h 53mn
Bit rate : 788 Kbps
Width : 720 pixels
Height : 384 pixels
Display aspect ratio : 1.875
Frame rate : 29.970 fps
Resolution : 24 bits
Colorimetry : 4:2:0
Scan type : Progressive
Bits/(Pixel*Frame) : 0.095
Stream size : 640 MiB (85%)
Writing library : XviD 1.2.1 (UTC 2008-12-04)
Audio #1
ID : 1
Format : MPEG Audio
Format version : Version 1
Format profile : Layer 3
Codec ID : 55
Codec ID/Hint : MP3
Duration : 1h 53mn
Bit rate mode : Constant
Bit rate : 128 Kbps
Channel(s) : 2 channels
Sampling rate : 48.0 KHz
Resolution : 16 bits
Stream size : 104 MiB (14%)
Alignment : Split accross interleaves
Interleave, duration : 33 ms (1.00 video frame)
Interleave, preload duration : 500 ms
Plot:
Tim (Rudd) is a rising executive who "succeeds" in finding the perfect guest, IRS employee Barry (Carell)

